<mxfile host="app.diagrams.net" modified="2023-08-26T14:25:25.703Z" agent="Mozilla/5.0 (Macintosh; Intel Mac OS X 10_15_7) AppleWebKit/537.36 (KHTML, like Gecko) Chrome/116.0.0.0 Safari/537.36" etag="8fxjxArjc8M8FhP6ow7Y" version="21.6.9" type="google">
  <diagram name="Page-1" id="j8gyJ469gVMiIQmluv2O">
    <mxGraphModel grid="1" page="1" gridSize="10" guides="1" tooltips="1" connect="1" arrows="1" fold="1" pageScale="1" pageWidth="850" pageHeight="1100" math="0" shadow="0">
      <root>
        <mxCell id="0" />
        <mxCell id="1" parent="0" />
        <mxCell id="etc8acA83fO2yyMRoaTT-22" style="edgeStyle=orthogonalEdgeStyle;rounded=0;orthogonalLoop=1;jettySize=auto;html=1;" edge="1" parent="1" source="Ho6LmtUpcL3kxW8yU0lt-6" target="etc8acA83fO2yyMRoaTT-1">
          <mxGeometry relative="1" as="geometry" />
        </mxCell>
        <mxCell id="Ho6LmtUpcL3kxW8yU0lt-19" value="DynamoDB transaction" style="fillColor=none;strokeColor=#5A6C86;dashed=1;verticalAlign=top;fontStyle=0;fontColor=#5A6C86;whiteSpace=wrap;html=1;align=left;spacingLeft=8;fontSize=13;" vertex="1" parent="1">
          <mxGeometry x="190" y="195" width="490" height="285" as="geometry" />
        </mxCell>
        <mxCell id="Ho6LmtUpcL3kxW8yU0lt-14" style="edgeStyle=orthogonalEdgeStyle;rounded=0;orthogonalLoop=1;jettySize=auto;html=1;entryX=0.5;entryY=1;entryDx=0;entryDy=0;entryPerimeter=0;fontSize=13;" edge="1" parent="1" source="Ho6LmtUpcL3kxW8yU0lt-13" target="Ho6LmtUpcL3kxW8yU0lt-13">
          <mxGeometry relative="1" as="geometry">
            <Array as="points">
              <mxPoint x="340" y="245" />
              <mxPoint x="340" y="320" />
              <mxPoint x="449" y="320" />
            </Array>
          </mxGeometry>
        </mxCell>
        <mxCell id="Ho6LmtUpcL3kxW8yU0lt-15" value="2. Execute&lt;br style=&quot;font-size: 13px;&quot;&gt;domain logic" style="edgeLabel;html=1;align=center;verticalAlign=middle;resizable=0;points=[];fontSize=13;" connectable="0" vertex="1" parent="Ho6LmtUpcL3kxW8yU0lt-14">
          <mxGeometry x="-0.1911" y="-1" relative="1" as="geometry">
            <mxPoint x="3" y="-10" as="offset" />
          </mxGeometry>
        </mxCell>
        <mxCell id="Ho6LmtUpcL3kxW8yU0lt-2" style="edgeStyle=orthogonalEdgeStyle;rounded=0;orthogonalLoop=1;jettySize=auto;html=1;fontSize=13;" edge="1" parent="1" source="Ho6LmtUpcL3kxW8yU0lt-13" target="Ho6LmtUpcL3kxW8yU0lt-8">
          <mxGeometry relative="1" as="geometry" />
        </mxCell>
        <mxCell id="Ho6LmtUpcL3kxW8yU0lt-3" value="1. Receive new message" style="edgeLabel;html=1;align=center;verticalAlign=middle;resizable=0;points=[];fontSize=13;" connectable="0" vertex="1" parent="Ho6LmtUpcL3kxW8yU0lt-2">
          <mxGeometry x="-0.2404" y="1" relative="1" as="geometry">
            <mxPoint x="1" y="-7" as="offset" />
          </mxGeometry>
        </mxCell>
        <mxCell id="Ho6LmtUpcL3kxW8yU0lt-6" value="&lt;span style=&quot;background-color: rgb(255, 255, 255); font-size: 13px;&quot;&gt;Outbox table&lt;/span&gt;" style="sketch=0;outlineConnect=0;fontColor=#232F3E;gradientColor=none;fillColor=#2E27AD;strokeColor=none;dashed=0;verticalLabelPosition=bottom;verticalAlign=top;align=center;html=1;fontSize=13;fontStyle=0;aspect=fixed;pointerEvents=1;shape=mxgraph.aws4.table;spacingBottom=0;spacingTop=7;" vertex="1" parent="1">
          <mxGeometry x="327.51" y="350" width="78" height="78" as="geometry" />
        </mxCell>
        <mxCell id="Ho6LmtUpcL3kxW8yU0lt-7" value="DynamoDB" style="sketch=0;points=[[0,0,0],[0.25,0,0],[0.5,0,0],[0.75,0,0],[1,0,0],[0,1,0],[0.25,1,0],[0.5,1,0],[0.75,1,0],[1,1,0],[0,0.25,0],[0,0.5,0],[0,0.75,0],[1,0.25,0],[1,0.5,0],[1,0.75,0]];outlineConnect=0;fontColor=#232F3E;gradientColor=#4D72F3;gradientDirection=north;fillColor=#3334B9;strokeColor=#ffffff;dashed=0;verticalLabelPosition=bottom;verticalAlign=top;align=center;html=1;fontSize=13;fontStyle=0;aspect=fixed;shape=mxgraph.aws4.resourceIcon;resIcon=mxgraph.aws4.dynamodb;" vertex="1" parent="1">
          <mxGeometry x="224.63" y="350" width="78" height="78" as="geometry" />
        </mxCell>
        <mxCell id="Ho6LmtUpcL3kxW8yU0lt-8" value="&lt;span style=&quot;background-color: rgb(255, 255, 255); font-size: 13px;&quot;&gt;SQS queue&lt;/span&gt;" style="sketch=0;points=[[0,0,0],[0.25,0,0],[0.5,0,0],[0.75,0,0],[1,0,0],[0,1,0],[0.25,1,0],[0.5,1,0],[0.75,1,0],[1,1,0],[0,0.25,0],[0,0.5,0],[0,0.75,0],[1,0.25,0],[1,0.5,0],[1,0.75,0]];outlineConnect=0;fontColor=#232F3E;gradientColor=#FF4F8B;gradientDirection=north;fillColor=#BC1356;strokeColor=#ffffff;dashed=0;verticalLabelPosition=bottom;verticalAlign=top;align=center;html=1;fontSize=13;fontStyle=0;aspect=fixed;shape=mxgraph.aws4.resourceIcon;resIcon=mxgraph.aws4.sqs;spacingBottom=0;spacingTop=7;" vertex="1" parent="1">
          <mxGeometry x="409.99" y="30" width="78" height="78" as="geometry" />
        </mxCell>
        <mxCell id="Ho6LmtUpcL3kxW8yU0lt-11" style="edgeStyle=orthogonalEdgeStyle;rounded=0;orthogonalLoop=1;jettySize=auto;html=1;fontSize=13;exitX=1;exitY=0.5;exitDx=0;exitDy=0;exitPerimeter=0;" edge="1" parent="1" source="Ho6LmtUpcL3kxW8yU0lt-13">
          <mxGeometry relative="1" as="geometry">
            <Array as="points">
              <mxPoint x="590" y="245" />
              <mxPoint x="590" y="394" />
            </Array>
            <mxPoint x="492.4699999999998" y="220" as="sourcePoint" />
            <mxPoint x="405.50999999999976" y="394" as="targetPoint" />
          </mxGeometry>
        </mxCell>
        <mxCell id="Ho6LmtUpcL3kxW8yU0lt-12" value="3. Publish new&lt;br style=&quot;font-size: 13px;&quot;&gt;messages" style="edgeLabel;html=1;align=center;verticalAlign=middle;resizable=0;points=[];fontSize=13;" connectable="0" vertex="1" parent="Ho6LmtUpcL3kxW8yU0lt-11">
          <mxGeometry x="-0.1539" relative="1" as="geometry">
            <mxPoint x="-90" y="65" as="offset" />
          </mxGeometry>
        </mxCell>
        <mxCell id="Ho6LmtUpcL3kxW8yU0lt-13" value="&lt;span style=&quot;background-color: rgb(255, 255, 255); font-size: 13px;&quot;&gt;Microservice&lt;/span&gt;" style="outlineConnect=0;dashed=0;verticalLabelPosition=bottom;verticalAlign=top;align=center;html=1;shape=mxgraph.aws3.ec2_compute_container_2;fillColor=#F58534;gradientColor=none;spacingTop=6;fontSize=13;" vertex="1" parent="1">
          <mxGeometry x="405.51" y="220" width="86.96" height="50" as="geometry" />
        </mxCell>
        <mxCell id="etc8acA83fO2yyMRoaTT-20" style="edgeStyle=orthogonalEdgeStyle;rounded=0;orthogonalLoop=1;jettySize=auto;html=1;entryX=0;entryY=0.5;entryDx=0;entryDy=0;entryPerimeter=0;fontSize=13;" edge="1" parent="1" source="etc8acA83fO2yyMRoaTT-1" target="etc8acA83fO2yyMRoaTT-3">
          <mxGeometry relative="1" as="geometry">
            <mxPoint x="440" y="569.0999999999999" as="sourcePoint" />
          </mxGeometry>
        </mxCell>
        <mxCell id="etc8acA83fO2yyMRoaTT-21" value="4. Receive published&lt;br style=&quot;font-size: 13px;&quot;&gt;messages" style="edgeLabel;html=1;align=center;verticalAlign=middle;resizable=0;points=[];fontSize=13;" connectable="0" vertex="1" parent="etc8acA83fO2yyMRoaTT-20">
          <mxGeometry x="-0.4493" y="2" relative="1" as="geometry">
            <mxPoint x="38" y="2" as="offset" />
          </mxGeometry>
        </mxCell>
        <mxCell id="etc8acA83fO2yyMRoaTT-1" value="DynamoDB Streams" style="sketch=0;outlineConnect=0;fontColor=#232F3E;gradientColor=none;fillColor=#2E27AD;strokeColor=none;dashed=0;verticalLabelPosition=bottom;verticalAlign=top;align=center;html=1;fontSize=13;fontStyle=0;aspect=fixed;pointerEvents=1;shape=mxgraph.aws4.dynamodb_stream;labelBackgroundColor=#FFFFFF;spacingTop=6;" vertex="1" parent="1">
          <mxGeometry x="327.51" y="530" width="78" height="78" as="geometry" />
        </mxCell>
        <mxCell id="etc8acA83fO2yyMRoaTT-12" style="edgeStyle=orthogonalEdgeStyle;rounded=0;orthogonalLoop=1;jettySize=auto;html=1;exitX=1;exitY=0.5;exitDx=0;exitDy=0;exitPerimeter=0;fontSize=13;entryX=0;entryY=0.5;entryDx=0;entryDy=0;entryPerimeter=0;" edge="1" parent="1" source="etc8acA83fO2yyMRoaTT-3" target="etc8acA83fO2yyMRoaTT-6">
          <mxGeometry relative="1" as="geometry">
            <mxPoint x="724.4900000000002" y="568.5" as="sourcePoint" />
            <mxPoint x="864.49" y="570" as="targetPoint" />
          </mxGeometry>
        </mxCell>
        <mxCell id="etc8acA83fO2yyMRoaTT-16" value="5. Dispatch messages&lt;br style=&quot;font-size: 13px;&quot;&gt;to SNS topics" style="edgeLabel;html=1;align=center;verticalAlign=middle;resizable=0;points=[];fontSize=13;" connectable="0" vertex="1" parent="etc8acA83fO2yyMRoaTT-12">
          <mxGeometry x="-0.0917" y="1" relative="1" as="geometry">
            <mxPoint x="7" y="1" as="offset" />
          </mxGeometry>
        </mxCell>
        <mxCell id="etc8acA83fO2yyMRoaTT-18" style="rounded=0;orthogonalLoop=1;jettySize=auto;html=1;fontSize=13;exitX=0.145;exitY=0.145;exitDx=0;exitDy=0;exitPerimeter=0;" edge="1" parent="1" source="etc8acA83fO2yyMRoaTT-3" target="Ho6LmtUpcL3kxW8yU0lt-6">
          <mxGeometry relative="1" as="geometry" />
        </mxCell>
        <mxCell id="etc8acA83fO2yyMRoaTT-19" value="6. Mark messages&lt;br style=&quot;font-size: 13px;&quot;&gt;as dispatched (optional)" style="edgeLabel;html=1;align=center;verticalAlign=middle;resizable=0;points=[];fontSize=13;" connectable="0" vertex="1" parent="etc8acA83fO2yyMRoaTT-18">
          <mxGeometry x="-0.4866" y="-1" relative="1" as="geometry">
            <mxPoint x="-11" as="offset" />
          </mxGeometry>
        </mxCell>
        <mxCell id="etc8acA83fO2yyMRoaTT-3" value="Lambda message relay" style="outlineConnect=0;dashed=0;verticalLabelPosition=bottom;verticalAlign=top;align=center;html=1;shape=mxgraph.aws3.lambda_function;fillColor=#F58534;gradientColor=none;fontSize=13;" vertex="1" parent="1">
          <mxGeometry x="611" y="533" width="69" height="72" as="geometry" />
        </mxCell>
        <mxCell id="etc8acA83fO2yyMRoaTT-6" value="SNS topics" style="sketch=0;points=[[0,0,0],[0.25,0,0],[0.5,0,0],[0.75,0,0],[1,0,0],[0,1,0],[0.25,1,0],[0.5,1,0],[0.75,1,0],[1,1,0],[0,0.25,0],[0,0.5,0],[0,0.75,0],[1,0.25,0],[1,0.5,0],[1,0.75,0]];outlineConnect=0;fontColor=#232F3E;gradientColor=#FF4F8B;gradientDirection=north;fillColor=#BC1356;strokeColor=#ffffff;dashed=0;verticalLabelPosition=bottom;verticalAlign=top;align=center;html=1;fontSize=13;fontStyle=0;aspect=fixed;shape=mxgraph.aws4.resourceIcon;resIcon=mxgraph.aws4.sns;" vertex="1" parent="1">
          <mxGeometry x="870" y="530" width="78" height="78" as="geometry" />
        </mxCell>
      </root>
    </mxGraphModel>
  </diagram>
</mxfile>
